<svg version="1.2" xmlns="http://www.w3.org/2000/svg" viewBox="2875 7 1904 239.00000000000003">
	<g id="Layer 1">
		<path fill="#000000" aria-label="BlueOrca" d="m2995.62 205h-64.9v-145.5h60.4q16.2 0 27.2 4.7 11 4.6 16.5 13 5.6 8.2 5.6 19.2 0 8.3-3.5 14.8-3.4 6.5-9.6 10.8-6 4.2-14 5.9v1.5q8.8 0.3 16.2 4.7 7.5 4.3 12 12.1 4.6 7.6 4.6 18.2 0 11.7-6 20.9-5.8 9.1-17.1 14.4-11.2 5.3-27.4 5.3zm-30.4-63.2v35.4h22.3q11.6 0 17.1-4.4 5.5-4.6 5.5-12.3 0-5.7-2.7-9.9-2.6-4.2-7.5-6.4-5-2.4-11.7-2.4zm0-54.8v32.5h20q5.8 0 10.3-1.9 4.5-2 7.1-5.7 2.6-3.7 2.6-8.9 0-7.3-5.2-11.6-5.3-4.4-14.2-4.4zm98.5-27.5h34v145.5h-34zm94.8 146.9q-11.4 0-20-5.1-8.5-5.1-13.2-14.4-4.6-9.2-4.6-21.6v-69.5h34v62.9q0 9.2 4.7 14.5 4.7 5.2 13.1 5.2 5.6 0 9.7-2.4 4.2-2.4 6.5-6.9 2.4-4.7 2.4-11v-62.3h34.1v109.2h-32.1l-0.6-27.6h1.5q-4 13.1-12.6 21.1-8.6 7.9-22.9 7.9zm139.9 0.7q-17 0-29.4-6.8-12.4-6.8-19-19.3-6.6-12.7-6.6-30.1 0-16.9 6.6-29.6 6.6-12.7 18.7-19.7 12.1-7.1 28.5-7.1 11.5 0 21.1 3.7 9.7 3.5 16.7 10.6 7.1 7 10.9 17.5 4 10.3 4 23.9v8.6h-94.4v-19.9h78.2l-16 4.7q0-7.6-2.3-13-2.2-5.5-6.8-8.5-4.4-3-11.1-3-6.7 0-11.3 3.1-4.5 2.9-7 8.3-2.3 5.2-2.3 12.4v14.2q0 8.4 2.7 14.1 2.8 5.6 7.8 8.4 5 2.8 11.7 2.8 4.6 0 8.3-1.3 3.8-1.3 6.4-3.7 2.7-2.6 4.1-6.3l30.4 5q-2.7 9.4-9.5 16.4-6.6 6.9-16.9 10.8-10.1 3.8-23.5 3.8zm135.3-0.1q-19.6 0-35.3-8.7-15.7-8.7-24.8-25.3-9.2-16.8-9.2-40.6 0-24.1 9.2-40.8 9.1-16.7 24.8-25.4 15.7-8.7 35.3-8.7 19.5 0 35.2 8.7 15.7 8.7 24.8 25.4 9.2 16.7 9.2 40.8 0 23.9-9.2 40.6-9.1 16.6-24.8 25.4-15.7 8.6-35.2 8.6zm0-30.3q10.6 0 18.2-5.1 7.6-5.1 11.6-14.9 4.2-10 4.2-24.3 0-14.5-4.2-24.4-4-10-11.6-15-7.6-5.2-18.2-5.2-10.6 0-18.2 5.2-7.6 5-11.8 15-4.1 9.9-4.1 24.4 0 14.3 4.1 24.3 4.2 9.8 11.8 14.9 7.6 5.1 18.2 5.1zm122 28.3h-34v-109.2h33v19.9h1.1q3-10.8 9.8-16 6.8-5.3 15.7-5.3 2.4 0 5 0.4 2.6 0.3 4.7 0.9v29.6q-2.4-0.9-6.4-1.2-3.9-0.5-7.1-0.5-6.2 0-11.3 2.8-4.9 2.7-7.8 7.6-2.7 4.9-2.7 11.4zm95.5 2.1q-17 0-29.4-7.1-12.2-7.1-18.8-19.7-6.6-12.7-6.6-29.5 0-16.9 6.6-29.5 6.6-12.7 18.8-19.7 12.4-7.1 29.4-7.1 10.6 0 19.1 2.7 8.8 2.7 15.3 7.8 6.6 5 10.6 12.2 4.1 7.1 5.4 16l-31.5 5.3q-0.8-4.3-2.4-7.6-1.5-3.4-3.9-5.7-2.3-2.3-5.4-3.5-3-1.2-6.7-1.2-6.6 0-11.2 3.6-4.5 3.6-7 10.4-2.4 6.7-2.4 16.2 0 9.3 2.4 16.1 2.5 6.8 7 10.6 4.6 3.6 11.2 3.6 3.8 0 6.8-1.2 3.1-1.3 5.4-3.6 2.4-2.4 4-5.9 1.6-3.5 2.3-7.9l31.5 5.1q-1.3 9.2-5.4 16.5-4 7.3-10.6 12.5-6.5 5.1-15.3 7.8-8.6 2.8-19.2 2.8zm100.9-0.1q-10.4 0-18.6-3.6-8.1-3.6-12.8-10.7-4.5-7.2-4.5-18 0-9.1 3.2-15.3 3.2-6.2 8.8-10.1 5.7-3.9 12.9-5.9 7.4-2.2 15.7-2.8 9.3-0.9 15-1.7 5.7-1 8.2-2.7 2.7-2 2.7-5.3v-0.4q0-3.8-1.8-6.5-1.7-2.6-5.1-4-3.2-1.4-7.9-1.4-4.7 0-8.4 1.5-3.6 1.4-6.1 3.9-2.2 2.5-3.2 5.9l-30.9-4q2.2-9.4 8.5-16.4 6.3-7.1 16.5-11 10.2-4 23.9-4 10.1 0 18.9 2.4 8.9 2.3 15.5 7 6.7 4.6 10.4 11.5 3.8 6.7 3.8 15.5v74.1h-32.1v-15.3h-0.9q-2.9 5.6-7.5 9.4-4.5 3.9-10.6 5.9-5.9 2-13.6 2zm10.4-22.6q5.8 0 10.4-2.3 4.6-2.4 7.3-6.4 2.8-4.2 2.8-9.6v-10.4q-1.5 0.7-3.7 1.5-2.2 0.6-4.9 1.2-2.5 0.5-5.2 1-2.6 0.4-5 0.8-5 0.7-8.6 2.4-3.4 1.6-5.3 4.3-1.8 2.6-1.8 6.2 0 3.7 1.7 6.2 1.9 2.5 5 3.8 3.2 1.3 7.3 1.3zm122.4-124.9"/>
		<path fill="#000000" aria-label="Websites" d="m3941.82 205h-16.7l-40.2-145.5h14.2l25.9 96.5q1.7 6.6 3.3 13.4 1.6 6.7 3.1 13.6 1.6 6.8 3 14h-1.8q1.4-7.2 2.8-14 1.6-6.9 3.3-13.6 1.6-6.8 3.4-13.4l25.8-96.5h16.3l25.6 96.5q1.8 6.6 3.5 13.4 1.6 6.7 3.1 13.6 1.6 6.8 3.1 14h-2q1.4-7.2 2.9-14 1.6-6.9 3.2-13.6 1.7-6.8 3.4-13.4l25.8-96.5h14.3l-40.3 145.5h-16.6l-26.5-97.4q-2.4-9-4.8-19-2.2-10.1-4.4-22.3h2.9q-2.2 11.7-4.4 21.6-2.1 9.8-4.8 19.7zm182.5 2.4q-15.3 0-26.5-7.2-11.2-7.2-17.3-19.8-6.1-12.8-6.1-29.3 0-16.5 6-29.3 6-12.8 16.8-20.1 10.8-7.3 25-7.3 9 0 17.3 3.3 8.4 3.2 15 9.9 6.6 6.7 10.4 16.9 3.9 10.3 3.9 24.2v5.7h-85.7v-11.4h78.6l-6.2 4.3q0-11.7-4-20.9-3.9-9.4-11.5-14.7-7.3-5.4-17.8-5.4-10.3 0-18.1 5.5-7.7 5.4-12.1 14.5-4.3 8.9-4.3 19.7v6.7q0 12.9 4.5 22.5 4.5 9.6 12.7 15 8.3 5.2 19.5 5.2 7.7 0 13.4-2.3 5.9-2.5 9.8-6.5 3.9-4.1 5.9-8.9l12.6 3.9q-2.5 6.9-8.2 12.8-5.6 5.8-14.2 9.4-8.4 3.6-19.4 3.6zm118.7 0q-9.9 0-16.6-3.6-6.6-3.6-10.7-8.8-4.1-5.3-6.3-10.4h-1.5v20.4h-12.8v-145.5h13.2v57.3h1.1q2.2-5 6.2-10.1 4.1-5.2 10.6-8.7 6.7-3.6 16.7-3.6 13.4 0 23.4 7.1 10.1 7 15.8 19.7 5.7 12.7 5.7 29.5 0 17-5.7 29.8-5.6 12.7-15.7 19.8-10 7.1-23.4 7.1zm-1.8-12q10.7 0 18-5.9 7.5-6.1 11.3-16.2 3.8-10.2 3.8-22.7 0-12.5-3.8-22.4-3.8-10.1-11.2-16-7.4-5.8-18.1-5.8-10.5 0-18 5.6-7.3 5.7-11.2 15.7-3.8 9.9-3.8 22.9 0 13 3.9 23.2 3.8 10 11.2 15.9 7.5 5.7 17.9 5.7zm109.6 12q-10.7 0-19-3.3-8.3-3.3-13.7-9.5-5.3-6.4-7.3-15.6l12.7-3q2.3 9.9 9.3 14.8 7 4.8 17.9 4.8 12.3 0 19.8-5.6 7.5-5.6 7.5-13.9 0-6.6-4.5-11-4.4-4.5-13.3-6.6l-17.7-4.3q-14.1-3.4-21.2-10.6-6.9-7.3-6.9-18.4 0-9.1 4.9-16 5-7 13.6-10.8 8.7-4 19.7-4 10.3 0 17.7 3.2 7.5 3.1 12.3 8.9 4.8 5.7 7.3 13.6l-12.1 3.1q-2.6-7.4-8.5-12.3-5.8-5-16.6-5-10.9 0-18 5.2-6.9 5.2-6.9 13.4 0 6.8 4.7 11.3 4.7 4.4 14.8 6.8l16.7 4q13.9 3.4 20.7 10.7 6.9 7.2 6.9 18 0 9.4-5.2 16.6-5.1 7.2-14.4 11.4-9.1 4.1-21.2 4.1zm81.5-2.4h-13.2v-109.2h13.2zm-6.5-129.4q-4 0-6.9-2.6-2.8-2.8-2.8-6.6 0-3.9 2.8-6.6 2.9-2.7 6.9-2.7 4 0 6.8 2.7 2.9 2.7 2.9 6.6 0 3.8-2.9 6.5-2.8 2.7-6.8 2.7zm25.2 20.3h52v11.5h-52zm16.3 84.3v-110.3h13.2v109.3q0 8.2 3.5 12 3.8 3.8 11.2 3 1.3 0 3.3-0.3 2.1-0.4 3.8-0.7l2.7 11.3q-2.1 0.7-4.7 1.2-2.6 0.4-5.2 0.4-13.1 0.9-20.5-6.1-7.3-7.2-7.3-19.8zm101 27.2q-15.3 0-26.5-7.1-11.2-7.3-17.3-19.9-6.1-12.7-6.1-29.3 0-16.5 6-29.2 6-12.9 16.8-20.2 10.8-7.3 25-7.3 9 0 17.3 3.3 8.4 3.3 15 10 6.6 6.7 10.4 16.9 3.9 10.2 3.9 24.1v5.8h-85.7v-11.4h78.6l-6.2 4.3q0-11.7-4-21-3.9-9.3-11.5-14.6-7.3-5.4-17.8-5.4-10.3 0-18.1 5.5-7.7 5.4-12.1 14.4-4.3 9-4.3 19.7v6.8q0 12.8 4.5 22.5 4.5 9.6 12.7 14.9 8.3 5.3 19.5 5.3 7.7 0 13.4-2.4 5.9-2.5 9.8-6.5 3.9-4.1 5.9-8.9l12.6 4q-2.5 6.8-8.2 12.7-5.6 5.8-14.2 9.5-8.4 3.5-19.4 3.5zm106.5 0q-10.7 0-19-3.2-8.3-3.3-13.7-9.6-5.3-6.4-7.3-15.5l12.7-3q2.3 9.8 9.3 14.7 7 4.8 17.9 4.8 12.3 0 19.8-5.6 7.5-5.6 7.5-13.9 0-6.6-4.5-11-4.4-4.4-13.3-6.5l-17.7-4.3q-14.1-3.4-21.2-10.7-6.9-7.3-6.9-18.4 0-9.1 4.9-15.9 5-7 13.6-10.9 8.7-4 19.7-4 10.3 0 17.7 3.2 7.5 3.2 12.3 8.9 4.8 5.8 7.3 13.7l-12.1 3.1q-2.6-7.5-8.5-12.4-5.8-5-16.6-5-10.9 0-18 5.2-6.9 5.2-6.9 13.4 0 6.9 4.7 11.3 4.7 4.4 14.8 6.9l16.7 4q13.9 3.3 20.7 10.6 6.9 7.2 6.9 18.1 0 9.3-5.2 16.6-5.1 7.2-14.4 11.3-9.1 4.1-21.2 4.1z"/>
	</g>
</svg>